<svg width="30" height="30" viewBox="0 0 30 30" fill="none" xmlns="http://www.w3.org/2000/svg">
<path d="M9 30C8.175 30 7.4685 29.7065 6.8805 29.1195C6.2925 28.5325 5.999 27.826 6 27C6 26.175 6.294 25.469 6.882 24.882C7.47 24.295 8.176 24.001 9 24C9.825 24 10.5315 24.294 11.1195 24.882C11.7075 25.47 12.001 26.176 12 27C12 27.825 11.706 28.5315 11.118 29.1195C10.53 29.7075 9.824 30.001 9 30ZM24 30C23.175 30 22.4685 29.7065 21.8805 29.1195C21.2925 28.5325 20.999 27.826 21 27C21 26.175 21.294 25.469 21.882 24.882C22.47 24.295 23.176 24.001 24 24C24.825 24 25.5315 24.294 26.1195 24.882C26.7075 25.47 27.001 26.176 27 27C27 27.825 26.706 28.5315 26.118 29.1195C25.53 29.7075 24.824 30.001 24 30ZM6.3 3H28.425C29 3 29.4375 3.2565 29.7375 3.7695C30.0375 4.2825 30.05 4.801 29.775 5.325L24.45 14.925C24.175 15.425 23.806 15.8125 23.343 16.0875C22.88 16.3625 22.374 16.5 21.825 16.5H10.65L9 19.5H27V22.5H9C7.875 22.5 7.025 22.0065 6.45 21.0195C5.875 20.0325 5.85 19.051 6.375 18.075L8.4 14.4L3 3H0V0H4.875L6.3 3Z" fill="#40A3D2"/>
</svg>
